<svg width="1590.630078125px" height="285.2px" xmlns="http://www.w3.org/2000/svg" viewBox="-545.3150390625 -67.6 1590.630078125 285.2" style="background: rgba(0, 0, 0, 0);" preserveAspectRatio="xMidYMid"><defs><linearGradient id="editing-outline-gradient" x1="0.14163205045469962" x2="0.8583679495453004" y1="-0.43358042649720174" y2="1.4335804264972016"><stop offset="0" stop-color="#ee4208"></stop><stop offset="1" stop-color="#4139ff"></stop></linearGradient><filter id="editing-outline" x="-100%" y="-100%" width="300%" height="300%"><feMorphology in="SourceGraphic" operator="dilate" radius="4" result="outline"></feMorphology><feComposite operator="out" in="outline" in2="SourceAlpha"></feComposite></filter></defs><g filter="url(#editing-outline)"><g transform="translate(-327.7250099182129, 132.2249984741211)"><path d="M84.63-87.19L84.63-110.48L131.21-110.48L131.21-87.19L124.11-87.19L124.11 0L84.21 0L42.60-64.04L42.60-23.29L49.42-23.29L49.42 0L2.84 0L2.84-23.29L9.94-23.29L9.94-87.19L2.84-87.19L2.84-110.48L54.10-110.48L91.45-53.53L91.45-87.19L84.63-87.19ZM232.45 0L136.60 0L136.60-23.29L143.70-23.29L143.70-87.19L136.60-87.19L136.60-110.48L232.45-110.48L232.45-67.59L200.65-67.59L200.65-87.19L183.46-87.19L183.46-64.75L195.96-64.75L195.96-48.56L183.46-48.56L183.46-23.29L200.65-23.29L200.65-45.72L232.45-45.72L232.45 0ZM359.26-87.19L359.26-110.48L404.70-110.48L404.70-87.19L399.02-87.19L377.86 0L335.40 0L322.48-61.34L321.06-61.34L307.43 0L264.97 0L242.39-87.19L236.71-87.19L236.71-110.48L289.25-110.48L289.25-87.19L283.86-87.19L289.40-50.98L290.82-50.98L304.31-110.48L345.20-110.48L357.70-50.98L359.12-50.98L364.66-87.19L359.26-87.19ZM453.26 1.99L453.26 1.99Q439.63 1.99 427.49-0.36L427.49-0.36L427.49-0.36Q415.35-2.70 408.82-5.68L408.82-5.68L408.82-33.80L440.06-33.80L440.06-33.80Q440.06-29.39 442.05-27.41L442.05-27.41L442.05-27.41Q444.03-25.42 449.29-25.42L449.29-25.42L449.29-25.42Q453.69-25.42 455.61-26.77L455.61-26.77L455.61-26.77Q457.52-28.12 457.52-30.81L457.52-30.81L457.52-30.81Q457.52-33.09 455.68-34.72L455.68-34.72L455.68-34.72Q453.83-36.35 449.29-38.06L449.29-38.06L437.08-42.32L437.08-42.32Q421.31-48.28 414.43-56.37L414.43-56.37L414.43-56.37Q407.54-64.47 407.54-78.24L407.54-78.24L407.54-78.24Q407.54-95.00 418.55-103.73L418.55-103.73L418.55-103.73Q429.55-112.46 455.25-112.46L455.25-112.46L455.25-112.46Q467.61-112.46 478.47-109.98L478.47-109.98L478.47-109.98Q489.33-107.49 496.01-103.38L496.01-103.38L496.01-77.96L467.61-77.96L467.61-77.96Q467.61-85.06 458.80-85.06L458.80-85.06L458.80-85.06Q454.54-85.06 452.77-83.99L452.77-83.99L452.77-83.99Q450.99-82.93 450.99-80.23L450.99-80.23L450.99-80.23Q450.99-77.82 453.05-76.40L453.05-76.40L453.05-76.40Q455.11-74.98 459.80-73.41L459.80-73.41L472.15-69.15L472.15-69.15Q487.20-64.04 494.09-55.88L494.09-55.88L494.09-55.88Q500.98-47.71 500.98-34.51L500.98-34.51L500.98-34.51Q500.98-16.47 488.84-7.24L488.84-7.24L488.84-7.24Q476.69 1.99 453.26 1.99L453.26 1.99ZM704.18-110.48L704.18-87.19L697.08-87.19L697.08-23.29L704.18-23.29L704.18 0L650.50 0L650.50-23.29L657.32-23.29L657.32-72.99L633.18 0L612.16 0L587.31-72.28L587.31-23.29L594.13-23.29L594.13 0L547.55 0L547.55-23.29L554.65-23.29L554.65-87.19L547.55-87.19L547.55-110.48L612.59-110.48L627.36-66.17L641.56-110.48L704.18-110.48ZM790.09-110.48L814.09-23.29L819.77-23.29L819.77 0L764.10 0L764.10-23.29L772.62-23.29L770.35-34.65L751.04-34.65L748.77-23.29L757.29-23.29L757.29 0L708.72 0L708.72-23.29L714.40-23.29L738.40-110.48L790.09-110.48ZM759.98-77.96L754.16-49.70L767.23-49.70L761.40-77.96L759.98-77.96ZM906.24-67.59L930.67-23.29L937.77-23.29L937.77 0L899.00 0L877.70-44.02L871.17-38.62L871.17-23.29L877.99-23.29L877.99 0L824.31 0L824.31-23.29L831.41-23.29L831.41-87.19L824.31-87.19L824.31-110.48L877.99-110.48L877.99-87.19L871.17-87.19L871.17-68.44L893.18-87.19L884.23-87.19L884.23-110.48L937.06-110.48L937.06-87.19L929.96-87.19L906.24-67.59ZM1038.73 0L942.88 0L942.88-23.29L949.98-23.29L949.98-87.19L942.88-87.19L942.88-110.48L1038.73-110.48L1038.73-67.59L1006.92-67.59L1006.92-87.19L989.74-87.19L989.74-64.75L1002.24-64.75L1002.24-48.56L989.74-48.56L989.74-23.29L1006.92-23.29L1006.92-45.72L1038.73-45.72L1038.73 0ZM1044.13 0L1044.13-23.29L1051.23-23.29L1051.23-87.19L1044.13-87.19L1044.13-110.48L1109.30-110.48L1109.30-110.48Q1127.62-110.48 1137.28-102.95L1137.28-102.95L1137.28-102.95Q1146.93-95.42 1146.93-78.53L1146.93-78.53L1146.93-78.53Q1146.93-69.01 1143.10-62.05L1143.10-62.05L1143.10-62.05Q1139.27-55.10 1132.17-52.40L1132.17-52.40L1132.31-50.98L1132.31-50.98Q1145.94-48.85 1145.94-34.22L1145.94-34.22L1145.94-23.29L1152.61-23.29L1152.61 0L1107.60 0L1107.60-33.37L1107.60-33.37Q1107.60-38.91 1105.97-41.75L1105.97-41.75L1105.97-41.75Q1104.33-44.59 1100.86-45.58L1100.86-45.58L1100.86-45.58Q1097.38-46.58 1090.99-46.58L1090.99-46.58L1090.99-23.29L1100.36-23.29L1100.36 0L1044.13 0ZM1090.99-63.90L1098.65-63.90L1098.65-63.90Q1102.77-63.90 1104.83-66.10L1104.83-66.10L1104.83-66.10Q1106.89-68.30 1106.89-72.99L1106.89-72.99L1106.89-78.10L1106.89-78.10Q1106.89-82.79 1104.83-84.99L1104.83-84.99L1104.83-84.99Q1102.77-87.19 1098.65-87.19L1098.65-87.19L1090.99-87.19L1090.99-63.90Z" fill="url(#editing-outline-gradient)"></path></g></g><style>text {
  font-size: 64px;
  font-family: Arial Black;
  dominant-baseline: central;
  text-anchor: middle;
}</style></svg>